<?xml version="1.0" encoding="utf-8" standalone="no"?>
<!DOCTYPE svg PUBLIC "-//W3C//DTD SVG 1.1//EN"
  "http://www.w3.org/Graphics/SVG/1.1/DTD/svg11.dtd">
<svg xmlns:xlink="http://www.w3.org/1999/xlink" width="381.65pt" height="263.63625pt" viewBox="0 0 381.65 263.63625" xmlns="http://www.w3.org/2000/svg" version="1.1">
 <metadata>
  <rdf:RDF xmlns:dc="http://purl.org/dc/elements/1.1/" xmlns:cc="http://creativecommons.org/ns#" xmlns:rdf="http://www.w3.org/1999/02/22-rdf-syntax-ns#">
   <cc:Work>
    <dc:type rdf:resource="http://purl.org/dc/dcmitype/StillImage"/>
    <dc:date>2024-05-09T15:25:41.401933</dc:date>
    <dc:format>image/svg+xml</dc:format>
    <dc:creator>
     <cc:Agent>
      <dc:title>Matplotlib v3.8.0, https://matplotlib.org/</dc:title>
     </cc:Agent>
    </dc:creator>
   </cc:Work>
  </rdf:RDF>
 </metadata>
 <defs>
  <style type="text/css">*{stroke-linejoin: round; stroke-linecap: butt}</style>
 </defs>
 <g id="figure_1">
  <g id="patch_1">
   <path d="M -0 263.63625 
L 381.65 263.63625 
L 381.65 0 
L -0 0 
z
" style="fill: #ffffff"/>
  </g>
  <g id="axes_1">
   <g id="patch_2">
    <path d="M 39.65 239.758125 
L 374.45 239.758125 
L 374.45 22.318125 
L 39.65 22.318125 
z
" style="fill: #ffffff"/>
   </g>
   <g id="matplotlib.axis_1">
    <g id="xtick_1">
     <g id="line2d_1">
      <defs>
       <path id="mb6c806a2ff" d="M 0 0 
L 0 3.5 
" style="stroke: #000000; stroke-width: 0.8"/>
      </defs>
      <g>
       <use xlink:href="#mb6c806a2ff" x="50.431394" y="239.758125" style="stroke: #000000; stroke-width: 0.8"/>
      </g>
     </g>
     <g id="text_1">
      <!-- 0 -->
      <g transform="translate(47.250144 254.356563) scale(0.1 -0.1)">
       <defs>
        <path id="DejaVuSans-30" d="M 2034 4250 
Q 1547 4250 1301 3770 
Q 1056 3291 1056 2328 
Q 1056 1369 1301 889 
Q 1547 409 2034 409 
Q 2525 409 2770 889 
Q 3016 1369 3016 2328 
Q 3016 3291 2770 3770 
Q 2525 4250 2034 4250 
z
M 2034 4750 
Q 2819 4750 3233 4129 
Q 3647 3509 3647 2328 
Q 3647 1150 3233 529 
Q 2819 -91 2034 -91 
Q 1250 -91 836 529 
Q 422 1150 422 2328 
Q 422 3509 836 4129 
Q 1250 4750 2034 4750 
z
" transform="scale(0.015625)"/>
       </defs>
       <use xlink:href="#DejaVuSans-30"/>
      </g>
     </g>
    </g>
    <g id="xtick_2">
     <g id="line2d_2">
      <g>
       <use xlink:href="#mb6c806a2ff" x="94.799271" y="239.758125" style="stroke: #000000; stroke-width: 0.8"/>
      </g>
     </g>
     <g id="text_2">
      <!-- 250 -->
      <g transform="translate(85.255521 254.356563) scale(0.1 -0.1)">
       <defs>
        <path id="DejaVuSans-32" d="M 1228 531 
L 3431 531 
L 3431 0 
L 469 0 
L 469 531 
Q 828 903 1448 1529 
Q 2069 2156 2228 2338 
Q 2531 2678 2651 2914 
Q 2772 3150 2772 3378 
Q 2772 3750 2511 3984 
Q 2250 4219 1831 4219 
Q 1534 4219 1204 4116 
Q 875 4013 500 3803 
L 500 4441 
Q 881 4594 1212 4672 
Q 1544 4750 1819 4750 
Q 2544 4750 2975 4387 
Q 3406 4025 3406 3419 
Q 3406 3131 3298 2873 
Q 3191 2616 2906 2266 
Q 2828 2175 2409 1742 
Q 1991 1309 1228 531 
z
" transform="scale(0.015625)"/>
        <path id="DejaVuSans-35" d="M 691 4666 
L 3169 4666 
L 3169 4134 
L 1269 4134 
L 1269 2991 
Q 1406 3038 1543 3061 
Q 1681 3084 1819 3084 
Q 2600 3084 3056 2656 
Q 3513 2228 3513 1497 
Q 3513 744 3044 326 
Q 2575 -91 1722 -91 
Q 1428 -91 1123 -41 
Q 819 9 494 109 
L 494 744 
Q 775 591 1075 516 
Q 1375 441 1709 441 
Q 2250 441 2565 725 
Q 2881 1009 2881 1497 
Q 2881 1984 2565 2268 
Q 2250 2553 1709 2553 
Q 1456 2553 1204 2497 
Q 953 2441 691 2322 
L 691 4666 
z
" transform="scale(0.015625)"/>
       </defs>
       <use xlink:href="#DejaVuSans-32"/>
       <use xlink:href="#DejaVuSans-35" x="63.623047"/>
       <use xlink:href="#DejaVuSans-30" x="127.246094"/>
      </g>
     </g>
    </g>
    <g id="xtick_3">
     <g id="line2d_3">
      <g>
       <use xlink:href="#mb6c806a2ff" x="139.167148" y="239.758125" style="stroke: #000000; stroke-width: 0.8"/>
      </g>
     </g>
     <g id="text_3">
      <!-- 500 -->
      <g transform="translate(129.623398 254.356563) scale(0.1 -0.1)">
       <use xlink:href="#DejaVuSans-35"/>
       <use xlink:href="#DejaVuSans-30" x="63.623047"/>
       <use xlink:href="#DejaVuSans-30" x="127.246094"/>
      </g>
     </g>
    </g>
    <g id="xtick_4">
     <g id="line2d_4">
      <g>
       <use xlink:href="#mb6c806a2ff" x="183.535025" y="239.758125" style="stroke: #000000; stroke-width: 0.8"/>
      </g>
     </g>
     <g id="text_4">
      <!-- 750 -->
      <g transform="translate(173.991275 254.356563) scale(0.1 -0.1)">
       <defs>
        <path id="DejaVuSans-37" d="M 525 4666 
L 3525 4666 
L 3525 4397 
L 1831 0 
L 1172 0 
L 2766 4134 
L 525 4134 
L 525 4666 
z
" transform="scale(0.015625)"/>
       </defs>
       <use xlink:href="#DejaVuSans-37"/>
       <use xlink:href="#DejaVuSans-35" x="63.623047"/>
       <use xlink:href="#DejaVuSans-30" x="127.246094"/>
      </g>
     </g>
    </g>
    <g id="xtick_5">
     <g id="line2d_5">
      <g>
       <use xlink:href="#mb6c806a2ff" x="227.902902" y="239.758125" style="stroke: #000000; stroke-width: 0.8"/>
      </g>
     </g>
     <g id="text_5">
      <!-- 1000 -->
      <g transform="translate(215.177902 254.356563) scale(0.1 -0.1)">
       <defs>
        <path id="DejaVuSans-31" d="M 794 531 
L 1825 531 
L 1825 4091 
L 703 3866 
L 703 4441 
L 1819 4666 
L 2450 4666 
L 2450 531 
L 3481 531 
L 3481 0 
L 794 0 
L 794 531 
z
" transform="scale(0.015625)"/>
       </defs>
       <use xlink:href="#DejaVuSans-31"/>
       <use xlink:href="#DejaVuSans-30" x="63.623047"/>
       <use xlink:href="#DejaVuSans-30" x="127.246094"/>
       <use xlink:href="#DejaVuSans-30" x="190.869141"/>
      </g>
     </g>
    </g>
    <g id="xtick_6">
     <g id="line2d_6">
      <g>
       <use xlink:href="#mb6c806a2ff" x="272.270779" y="239.758125" style="stroke: #000000; stroke-width: 0.8"/>
      </g>
     </g>
     <g id="text_6">
      <!-- 1250 -->
      <g transform="translate(259.545779 254.356563) scale(0.1 -0.1)">
       <use xlink:href="#DejaVuSans-31"/>
       <use xlink:href="#DejaVuSans-32" x="63.623047"/>
       <use xlink:href="#DejaVuSans-35" x="127.246094"/>
       <use xlink:href="#DejaVuSans-30" x="190.869141"/>
      </g>
     </g>
    </g>
    <g id="xtick_7">
     <g id="line2d_7">
      <g>
       <use xlink:href="#mb6c806a2ff" x="316.638656" y="239.758125" style="stroke: #000000; stroke-width: 0.8"/>
      </g>
     </g>
     <g id="text_7">
      <!-- 1500 -->
      <g transform="translate(303.913656 254.356563) scale(0.1 -0.1)">
       <use xlink:href="#DejaVuSans-31"/>
       <use xlink:href="#DejaVuSans-35" x="63.623047"/>
       <use xlink:href="#DejaVuSans-30" x="127.246094"/>
       <use xlink:href="#DejaVuSans-30" x="190.869141"/>
      </g>
     </g>
    </g>
    <g id="xtick_8">
     <g id="line2d_8">
      <g>
       <use xlink:href="#mb6c806a2ff" x="361.006533" y="239.758125" style="stroke: #000000; stroke-width: 0.8"/>
      </g>
     </g>
     <g id="text_8">
      <!-- 1750 -->
      <g transform="translate(348.281533 254.356563) scale(0.1 -0.1)">
       <use xlink:href="#DejaVuSans-31"/>
       <use xlink:href="#DejaVuSans-37" x="63.623047"/>
       <use xlink:href="#DejaVuSans-35" x="127.246094"/>
       <use xlink:href="#DejaVuSans-30" x="190.869141"/>
      </g>
     </g>
    </g>
   </g>
   <g id="matplotlib.axis_2">
    <g id="ytick_1">
     <g id="line2d_9">
      <defs>
       <path id="m2271e616bb" d="M 0 0 
L -3.5 0 
" style="stroke: #000000; stroke-width: 0.8"/>
      </defs>
      <g>
       <use xlink:href="#m2271e616bb" x="39.65" y="230.719244" style="stroke: #000000; stroke-width: 0.8"/>
      </g>
     </g>
     <g id="text_9">
      <!-- 0 -->
      <g transform="translate(26.2875 234.518463) scale(0.1 -0.1)">
       <use xlink:href="#DejaVuSans-30"/>
      </g>
     </g>
    </g>
    <g id="ytick_2">
     <g id="line2d_10">
      <g>
       <use xlink:href="#m2271e616bb" x="39.65" y="196.929034" style="stroke: #000000; stroke-width: 0.8"/>
      </g>
     </g>
     <g id="text_10">
      <!-- 200 -->
      <g transform="translate(13.5625 200.728253) scale(0.1 -0.1)">
       <use xlink:href="#DejaVuSans-32"/>
       <use xlink:href="#DejaVuSans-30" x="63.623047"/>
       <use xlink:href="#DejaVuSans-30" x="127.246094"/>
      </g>
     </g>
    </g>
    <g id="ytick_3">
     <g id="line2d_11">
      <g>
       <use xlink:href="#m2271e616bb" x="39.65" y="163.138824" style="stroke: #000000; stroke-width: 0.8"/>
      </g>
     </g>
     <g id="text_11">
      <!-- 400 -->
      <g transform="translate(13.5625 166.938043) scale(0.1 -0.1)">
       <defs>
        <path id="DejaVuSans-34" d="M 2419 4116 
L 825 1625 
L 2419 1625 
L 2419 4116 
z
M 2253 4666 
L 3047 4666 
L 3047 1625 
L 3713 1625 
L 3713 1100 
L 3047 1100 
L 3047 0 
L 2419 0 
L 2419 1100 
L 313 1100 
L 313 1709 
L 2253 4666 
z
" transform="scale(0.015625)"/>
       </defs>
       <use xlink:href="#DejaVuSans-34"/>
       <use xlink:href="#DejaVuSans-30" x="63.623047"/>
       <use xlink:href="#DejaVuSans-30" x="127.246094"/>
      </g>
     </g>
    </g>
    <g id="ytick_4">
     <g id="line2d_12">
      <g>
       <use xlink:href="#m2271e616bb" x="39.65" y="129.348615" style="stroke: #000000; stroke-width: 0.8"/>
      </g>
     </g>
     <g id="text_12">
      <!-- 600 -->
      <g transform="translate(13.5625 133.147833) scale(0.1 -0.1)">
       <defs>
        <path id="DejaVuSans-36" d="M 2113 2584 
Q 1688 2584 1439 2293 
Q 1191 2003 1191 1497 
Q 1191 994 1439 701 
Q 1688 409 2113 409 
Q 2538 409 2786 701 
Q 3034 994 3034 1497 
Q 3034 2003 2786 2293 
Q 2538 2584 2113 2584 
z
M 3366 4563 
L 3366 3988 
Q 3128 4100 2886 4159 
Q 2644 4219 2406 4219 
Q 1781 4219 1451 3797 
Q 1122 3375 1075 2522 
Q 1259 2794 1537 2939 
Q 1816 3084 2150 3084 
Q 2853 3084 3261 2657 
Q 3669 2231 3669 1497 
Q 3669 778 3244 343 
Q 2819 -91 2113 -91 
Q 1303 -91 875 529 
Q 447 1150 447 2328 
Q 447 3434 972 4092 
Q 1497 4750 2381 4750 
Q 2619 4750 2861 4703 
Q 3103 4656 3366 4563 
z
" transform="scale(0.015625)"/>
       </defs>
       <use xlink:href="#DejaVuSans-36"/>
       <use xlink:href="#DejaVuSans-30" x="63.623047"/>
       <use xlink:href="#DejaVuSans-30" x="127.246094"/>
      </g>
     </g>
    </g>
    <g id="ytick_5">
     <g id="line2d_13">
      <g>
       <use xlink:href="#m2271e616bb" x="39.65" y="95.558405" style="stroke: #000000; stroke-width: 0.8"/>
      </g>
     </g>
     <g id="text_13">
      <!-- 800 -->
      <g transform="translate(13.5625 99.357623) scale(0.1 -0.1)">
       <defs>
        <path id="DejaVuSans-38" d="M 2034 2216 
Q 1584 2216 1326 1975 
Q 1069 1734 1069 1313 
Q 1069 891 1326 650 
Q 1584 409 2034 409 
Q 2484 409 2743 651 
Q 3003 894 3003 1313 
Q 3003 1734 2745 1975 
Q 2488 2216 2034 2216 
z
M 1403 2484 
Q 997 2584 770 2862 
Q 544 3141 544 3541 
Q 544 4100 942 4425 
Q 1341 4750 2034 4750 
Q 2731 4750 3128 4425 
Q 3525 4100 3525 3541 
Q 3525 3141 3298 2862 
Q 3072 2584 2669 2484 
Q 3125 2378 3379 2068 
Q 3634 1759 3634 1313 
Q 3634 634 3220 271 
Q 2806 -91 2034 -91 
Q 1263 -91 848 271 
Q 434 634 434 1313 
Q 434 1759 690 2068 
Q 947 2378 1403 2484 
z
M 1172 3481 
Q 1172 3119 1398 2916 
Q 1625 2713 2034 2713 
Q 2441 2713 2670 2916 
Q 2900 3119 2900 3481 
Q 2900 3844 2670 4047 
Q 2441 4250 2034 4250 
Q 1625 4250 1398 4047 
Q 1172 3844 1172 3481 
z
" transform="scale(0.015625)"/>
       </defs>
       <use xlink:href="#DejaVuSans-38"/>
       <use xlink:href="#DejaVuSans-30" x="63.623047"/>
       <use xlink:href="#DejaVuSans-30" x="127.246094"/>
      </g>
     </g>
    </g>
    <g id="ytick_6">
     <g id="line2d_14">
      <g>
       <use xlink:href="#m2271e616bb" x="39.65" y="61.768195" style="stroke: #000000; stroke-width: 0.8"/>
      </g>
     </g>
     <g id="text_14">
      <!-- 1000 -->
      <g transform="translate(7.2 65.567414) scale(0.1 -0.1)">
       <use xlink:href="#DejaVuSans-31"/>
       <use xlink:href="#DejaVuSans-30" x="63.623047"/>
       <use xlink:href="#DejaVuSans-30" x="127.246094"/>
       <use xlink:href="#DejaVuSans-30" x="190.869141"/>
      </g>
     </g>
    </g>
    <g id="ytick_7">
     <g id="line2d_15">
      <g>
       <use xlink:href="#m2271e616bb" x="39.65" y="27.977985" style="stroke: #000000; stroke-width: 0.8"/>
      </g>
     </g>
     <g id="text_15">
      <!-- 1200 -->
      <g transform="translate(7.2 31.777204) scale(0.1 -0.1)">
       <use xlink:href="#DejaVuSans-31"/>
       <use xlink:href="#DejaVuSans-32" x="63.623047"/>
       <use xlink:href="#DejaVuSans-30" x="127.246094"/>
       <use xlink:href="#DejaVuSans-30" x="190.869141"/>
      </g>
     </g>
    </g>
   </g>
   <g id="PathCollection_1">
    <defs>
     <path id="mb8a27dbfd1" d="M 0 2.236068 
C 0.593012 2.236068 1.161816 2.000462 1.581139 1.581139 
C 2.000462 1.161816 2.236068 0.593012 2.236068 0 
C 2.236068 -0.593012 2.000462 -1.161816 1.581139 -1.581139 
C 1.161816 -2.000462 0.593012 -2.236068 0 -2.236068 
C -0.593012 -2.236068 -1.161816 -2.000462 -1.581139 -1.581139 
C -2.000462 -1.161816 -2.236068 -0.593012 -2.236068 0 
C -2.236068 0.593012 -2.000462 1.161816 -1.581139 1.581139 
C -1.161816 2.000462 -0.593012 2.236068 0 2.236068 
z
" style="stroke: #fa7f6f"/>
    </defs>
    <g clip-path="url(#pd60e83608f)">
     <use xlink:href="#mb8a27dbfd1" x="150.702796" y="133.572391" style="fill: #fa7f6f; stroke: #fa7f6f"/>
     <use xlink:href="#mb8a27dbfd1" x="54.868182" y="199.4633" style="fill: #fa7f6f; stroke: #fa7f6f"/>
     <use xlink:href="#mb8a27dbfd1" x="111.659064" y="104.005957" style="fill: #fa7f6f; stroke: #fa7f6f"/>
     <use xlink:href="#mb8a27dbfd1" x="218.141969" y="114.987775" style="fill: #fa7f6f; stroke: #fa7f6f"/>
     <use xlink:href="#mb8a27dbfd1" x="200.394818" y="120.056307" style="fill: #fa7f6f; stroke: #fa7f6f"/>
     <use xlink:href="#mb8a27dbfd1" x="206.606321" y="119.211552" style="fill: #fa7f6f; stroke: #fa7f6f"/>
     <use xlink:href="#mb8a27dbfd1" x="54.868182" y="191.860503" style="fill: #fa7f6f; stroke: #fa7f6f"/>
     <use xlink:href="#mb8a27dbfd1" x="143.603936" y="61.768195" style="fill: #fa7f6f; stroke: #fa7f6f"/>
     <use xlink:href="#mb8a27dbfd1" x="153.364869" y="32.201761" style="fill: #fa7f6f; stroke: #fa7f6f"/>
     <use xlink:href="#mb8a27dbfd1" x="165.787874" y="39.804559" style="fill: #fa7f6f; stroke: #fa7f6f"/>
     <use xlink:href="#mb8a27dbfd1" x="335.273165" y="125.969594" style="fill: #fa7f6f; stroke: #fa7f6f"/>
     <use xlink:href="#mb8a27dbfd1" x="266.946634" y="132.727635" style="fill: #fa7f6f; stroke: #fa7f6f"/>
     <use xlink:href="#mb8a27dbfd1" x="310.427153" y="196.929034" style="fill: #fa7f6f; stroke: #fa7f6f"/>
     <use xlink:href="#mb8a27dbfd1" x="321.962801" y="229.874489" style="fill: #fa7f6f; stroke: #fa7f6f"/>
     <use xlink:href="#mb8a27dbfd1" x="200.394818" y="115.832531" style="fill: #fa7f6f; stroke: #fa7f6f"/>
     <use xlink:href="#mb8a27dbfd1" x="179.098237" y="168.207356" style="fill: #fa7f6f; stroke: #fa7f6f"/>
     <use xlink:href="#mb8a27dbfd1" x="76.164763" y="118.366796" style="fill: #fa7f6f; stroke: #fa7f6f"/>
     <use xlink:href="#mb8a27dbfd1" x="124.08207" y="123.435328" style="fill: #fa7f6f; stroke: #fa7f6f"/>
     <use xlink:href="#mb8a27dbfd1" x="140.941863" y="82.887076" style="fill: #fa7f6f; stroke: #fa7f6f"/>
     <use xlink:href="#mb8a27dbfd1" x="149.815439" y="169.052111" style="fill: #fa7f6f; stroke: #fa7f6f"/>
     <use xlink:href="#mb8a27dbfd1" x="103.672847" y="152.157006" style="fill: #fa7f6f; stroke: #fa7f6f"/>
     <use xlink:href="#mb8a27dbfd1" x="142.716578" y="131.88288" style="fill: #fa7f6f; stroke: #fa7f6f"/>
     <use xlink:href="#mb8a27dbfd1" x="135.617718" y="160.604559" style="fill: #fa7f6f; stroke: #fa7f6f"/>
     <use xlink:href="#mb8a27dbfd1" x="198.620103" y="125.124838" style="fill: #fa7f6f; stroke: #fa7f6f"/>
     <use xlink:href="#mb8a27dbfd1" x="223.466114" y="132.727635" style="fill: #fa7f6f; stroke: #fa7f6f"/>
     <use xlink:href="#mb8a27dbfd1" x="266.059276" y="189.326237" style="fill: #fa7f6f; stroke: #fa7f6f"/>
     <use xlink:href="#mb8a27dbfd1" x="284.693785" y="177.499663" style="fill: #fa7f6f; stroke: #fa7f6f"/>
     <use xlink:href="#mb8a27dbfd1" x="272.270779" y="163.138824" style="fill: #fa7f6f; stroke: #fa7f6f"/>
     <use xlink:href="#mb8a27dbfd1" x="167.562589" y="200.308055" style="fill: #fa7f6f; stroke: #fa7f6f"/>
     <use xlink:href="#mb8a27dbfd1" x="123.194712" y="188.481482" style="fill: #fa7f6f; stroke: #fa7f6f"/>
     <use xlink:href="#mb8a27dbfd1" x="124.969428" y="136.951412" style="fill: #fa7f6f; stroke: #fa7f6f"/>
     <use xlink:href="#mb8a27dbfd1" x="152.477511" y="118.366796" style="fill: #fa7f6f; stroke: #fa7f6f"/>
     <use xlink:href="#mb8a27dbfd1" x="254.523628" y="34.736027" style="fill: #fa7f6f; stroke: #fa7f6f"/>
     <use xlink:href="#mb8a27dbfd1" x="174.66145" y="132.727635" style="fill: #fa7f6f; stroke: #fa7f6f"/>
     <use xlink:href="#mb8a27dbfd1" x="171.999377" y="130.19337" style="fill: #fa7f6f; stroke: #fa7f6f"/>
     <use xlink:href="#mb8a27dbfd1" x="171.999377" y="127.659104" style="fill: #fa7f6f; stroke: #fa7f6f"/>
     <use xlink:href="#mb8a27dbfd1" x="187.084455" y="127.659104" style="fill: #fa7f6f; stroke: #fa7f6f"/>
     <use xlink:href="#mb8a27dbfd1" x="191.521243" y="121.745817" style="fill: #fa7f6f; stroke: #fa7f6f"/>
     <use xlink:href="#mb8a27dbfd1" x="178.21088" y="123.435328" style="fill: #fa7f6f; stroke: #fa7f6f"/>
     <use xlink:href="#mb8a27dbfd1" x="185.30974" y="120.901062" style="fill: #fa7f6f; stroke: #fa7f6f"/>
     <use xlink:href="#mb8a27dbfd1" x="134.73036" y="68.526237" style="fill: #fa7f6f; stroke: #fa7f6f"/>
     <use xlink:href="#mb8a27dbfd1" x="67.291187" y="186.791971" style="fill: #fa7f6f; stroke: #fa7f6f"/>
     <use xlink:href="#mb8a27dbfd1" x="205.718964" y="75.284279" style="fill: #fa7f6f; stroke: #fa7f6f"/>
     <use xlink:href="#mb8a27dbfd1" x="174.66145" y="146.243719" style="fill: #fa7f6f; stroke: #fa7f6f"/>
     <use xlink:href="#mb8a27dbfd1" x="148.928081" y="93.024139" style="fill: #fa7f6f; stroke: #fa7f6f"/>
     <use xlink:href="#mb8a27dbfd1" x="197.732746" y="148.777985" style="fill: #fa7f6f; stroke: #fa7f6f"/>
     <use xlink:href="#mb8a27dbfd1" x="258.073059" y="219.737426" style="fill: #fa7f6f; stroke: #fa7f6f"/>
     <use xlink:href="#mb8a27dbfd1" x="197.732746" y="127.659104" style="fill: #fa7f6f; stroke: #fa7f6f"/>
     <use xlink:href="#mb8a27dbfd1" x="157.801657" y="125.124838" style="fill: #fa7f6f; stroke: #fa7f6f"/>
     <use xlink:href="#mb8a27dbfd1" x="156.026941" y="169.896866" style="fill: #fa7f6f; stroke: #fa7f6f"/>
     <use xlink:href="#mb8a27dbfd1" x="288.243215" y="108.229733" style="fill: #fa7f6f; stroke: #fa7f6f"/>
     <use xlink:href="#mb8a27dbfd1" x="359.231818" y="189.326237" style="fill: #fa7f6f; stroke: #fa7f6f"/>
    </g>
   </g>
   <g id="patch_3">
    <path d="M 39.65 239.758125 
L 39.65 22.318125 
" style="fill: none; stroke: #000000; stroke-width: 0.8; stroke-linejoin: miter; stroke-linecap: square"/>
   </g>
   <g id="patch_4">
    <path d="M 374.45 239.758125 
L 374.45 22.318125 
" style="fill: none; stroke: #000000; stroke-width: 0.8; stroke-linejoin: miter; stroke-linecap: square"/>
   </g>
   <g id="patch_5">
    <path d="M 39.65 239.758125 
L 374.45 239.758125 
" style="fill: none; stroke: #000000; stroke-width: 0.8; stroke-linejoin: miter; stroke-linecap: square"/>
   </g>
   <g id="patch_6">
    <path d="M 39.65 22.318125 
L 374.45 22.318125 
" style="fill: none; stroke: #000000; stroke-width: 0.8; stroke-linejoin: miter; stroke-linecap: square"/>
   </g>
   <g id="text_16">
    <!-- berlin52 -->
    <g transform="translate(182.31125 16.318125) scale(0.12 -0.12)">
     <defs>
      <path id="DejaVuSans-62" d="M 3116 1747 
Q 3116 2381 2855 2742 
Q 2594 3103 2138 3103 
Q 1681 3103 1420 2742 
Q 1159 2381 1159 1747 
Q 1159 1113 1420 752 
Q 1681 391 2138 391 
Q 2594 391 2855 752 
Q 3116 1113 3116 1747 
z
M 1159 2969 
Q 1341 3281 1617 3432 
Q 1894 3584 2278 3584 
Q 2916 3584 3314 3078 
Q 3713 2572 3713 1747 
Q 3713 922 3314 415 
Q 2916 -91 2278 -91 
Q 1894 -91 1617 61 
Q 1341 213 1159 525 
L 1159 0 
L 581 0 
L 581 4863 
L 1159 4863 
L 1159 2969 
z
" transform="scale(0.015625)"/>
      <path id="DejaVuSans-65" d="M 3597 1894 
L 3597 1613 
L 953 1613 
Q 991 1019 1311 708 
Q 1631 397 2203 397 
Q 2534 397 2845 478 
Q 3156 559 3463 722 
L 3463 178 
Q 3153 47 2828 -22 
Q 2503 -91 2169 -91 
Q 1331 -91 842 396 
Q 353 884 353 1716 
Q 353 2575 817 3079 
Q 1281 3584 2069 3584 
Q 2775 3584 3186 3129 
Q 3597 2675 3597 1894 
z
M 3022 2063 
Q 3016 2534 2758 2815 
Q 2500 3097 2075 3097 
Q 1594 3097 1305 2825 
Q 1016 2553 972 2059 
L 3022 2063 
z
" transform="scale(0.015625)"/>
      <path id="DejaVuSans-72" d="M 2631 2963 
Q 2534 3019 2420 3045 
Q 2306 3072 2169 3072 
Q 1681 3072 1420 2755 
Q 1159 2438 1159 1844 
L 1159 0 
L 581 0 
L 581 3500 
L 1159 3500 
L 1159 2956 
Q 1341 3275 1631 3429 
Q 1922 3584 2338 3584 
Q 2397 3584 2469 3576 
Q 2541 3569 2628 3553 
L 2631 2963 
z
" transform="scale(0.015625)"/>
      <path id="DejaVuSans-6c" d="M 603 4863 
L 1178 4863 
L 1178 0 
L 603 0 
L 603 4863 
z
" transform="scale(0.015625)"/>
      <path id="DejaVuSans-69" d="M 603 3500 
L 1178 3500 
L 1178 0 
L 603 0 
L 603 3500 
z
M 603 4863 
L 1178 4863 
L 1178 4134 
L 603 4134 
L 603 4863 
z
" transform="scale(0.015625)"/>
      <path id="DejaVuSans-6e" d="M 3513 2113 
L 3513 0 
L 2938 0 
L 2938 2094 
Q 2938 2591 2744 2837 
Q 2550 3084 2163 3084 
Q 1697 3084 1428 2787 
Q 1159 2491 1159 1978 
L 1159 0 
L 581 0 
L 581 3500 
L 1159 3500 
L 1159 2956 
Q 1366 3272 1645 3428 
Q 1925 3584 2291 3584 
Q 2894 3584 3203 3211 
Q 3513 2838 3513 2113 
z
" transform="scale(0.015625)"/>
     </defs>
     <use xlink:href="#DejaVuSans-62"/>
     <use xlink:href="#DejaVuSans-65" x="63.476562"/>
     <use xlink:href="#DejaVuSans-72" x="125"/>
     <use xlink:href="#DejaVuSans-6c" x="166.113281"/>
     <use xlink:href="#DejaVuSans-69" x="193.896484"/>
     <use xlink:href="#DejaVuSans-6e" x="221.679688"/>
     <use xlink:href="#DejaVuSans-35" x="285.058594"/>
     <use xlink:href="#DejaVuSans-32" x="348.681641"/>
    </g>
   </g>
  </g>
 </g>
 <defs>
  <clipPath id="pd60e83608f">
   <rect x="39.65" y="22.318125" width="334.8" height="217.44"/>
  </clipPath>
 </defs>
</svg>
